<?xml version="1.0" encoding="UTF-8"?> <svg xmlns="http://www.w3.org/2000/svg" width="29.554" height="37.326" viewBox="0 0 29.554 37.326"><path id="Caminho_22" data-name="Caminho 22" d="M45.588,752.054c.144,0,.288,0,.432-.017a1.225,1.225,0,0,0,.689-.271,1.057,1.057,0,0,0,.36-.734,18.189,18.189,0,0,0,.005-1.906,1.269,1.269,0,0,0-.082-.428.981.981,0,0,0-.75-.627,11.145,11.145,0,0,0-1.451-.014h0v3.984h.027c.251,0,.5.012.754.012Zm8.05-4.087a1.147,1.147,0,0,0-.648.2,1.233,1.233,0,0,0-.487.792,5.234,5.234,0,0,0-.043.909q0,2.223,0,4.452a3.448,3.448,0,0,0,.071.844,1.111,1.111,0,0,0,.774.8,1.313,1.313,0,0,0,.347.046h0a1.121,1.121,0,0,0,1.166-1.125c.01-.189.009-.38.011-.57.009-.8,0-1.611,0-2.406l0,0c0-.888.017-1.768,0-2.653a1.667,1.667,0,0,0-.078-.559,1.137,1.137,0,0,0-.729-.674,1.3,1.3,0,0,0-.373-.057Zm16.428,9.72H68.032V748l-2.216,0V746.3h6.466v1.654l-2.216,0ZM44.986,746.3c.327,0,.655,0,.984.014a3.628,3.628,0,0,1,1.995.619,2.949,2.949,0,0,1,1.121,1.684,4.192,4.192,0,0,1,.113,1.01c0,.349.006.7,0,1.046a3.261,3.261,0,0,1-.387,1.5,3.066,3.066,0,0,1-1.577,1.359,3.894,3.894,0,0,1-1.3.239c-.122,0-.242,0-.364,0h-.019c-.261,0-.522,0-.783,0h0V757.7H42.733V746.319c.479-.008.959-.01,1.438-.013q.393,0,.787,0Zm15.073,11.405M61.4,746.016a4.2,4.2,0,0,1,1.617.33,2.282,2.282,0,0,1,.94.71,2.585,2.585,0,0,1,.442,1.017,5.673,5.673,0,0,1,.093,1.522l-.005.1-2.034,0c0-.275.011-.64,0-.915a1.172,1.172,0,0,0-.3-.755.985.985,0,0,0-.451-.263,1.223,1.223,0,0,0-.319-.043h0a1.043,1.043,0,0,0-.683.237,1.2,1.2,0,0,0-.371.8,3.554,3.554,0,0,0,0,.74,1.451,1.451,0,0,0,.29.745,2.692,2.692,0,0,0,1.06.7c.45.2.912.373,1.348.6a2.947,2.947,0,0,1,1.19,1.081,3.226,3.226,0,0,1,.421,1.479,11.045,11.045,0,0,1,0,1.323,2.537,2.537,0,0,1-1.873,2.366,4.8,4.8,0,0,1-1.361.2h-.01a4.661,4.661,0,0,1-1.268-.174l-.081-.023h0a3.555,3.555,0,0,1-1.435-.961,2.4,2.4,0,0,1-.507-1.3,8.325,8.325,0,0,1-.006-1.141c.005-.109.011-.218.024-.325v0l.011-.08H60.1v.091h0v.017c0,.317-.016.635,0,.958a1.346,1.346,0,0,0,.24.746,1.271,1.271,0,0,0,.975.475h.071a1.24,1.24,0,0,0,.851-.3,1.264,1.264,0,0,0,.357-.846c.016-.246,0-.494,0-.743a1.588,1.588,0,0,0-.323-.945,1.86,1.86,0,0,0-.625-.489l-.066-.033c-.424-.212-.866-.4-1.3-.57a3.082,3.082,0,0,1-1.651-1.363,3.122,3.122,0,0,1-.332-1.51,9.249,9.249,0,0,1,.1-1.468,2.175,2.175,0,0,1,.472-1.038,2.49,2.49,0,0,1,1.112-.708,4.524,4.524,0,0,1,1.416-.239Zm-7.714,0a3.316,3.316,0,0,1,2.241.892,3.093,3.093,0,0,1,.894,1.564,4.419,4.419,0,0,1,.067.932c.006,1.748.007,3.5,0,5.237,0,.126,0,.253-.008.377a3.24,3.24,0,0,1-.517,1.573,3.1,3.1,0,0,1-1.378,1.139,3.422,3.422,0,0,1-1.31.262h-.01a3.424,3.424,0,0,1-1.006-.151,3.087,3.087,0,0,1-2.009-1.836,4.166,4.166,0,0,1-.21-1.3c-.023-.686-.014-1.376-.009-2.065,0-.752.008-1.5.009-2.251,0-.418,0-.836-.01-1.252a2.928,2.928,0,0,1,.326-1.4,3.229,3.229,0,0,1,1.821-1.535,3.45,3.45,0,0,1,1.094-.184Zm.089,16.744h-.226c-.084.63-.494,3.773-.579,4.4h1.38Zm16.475,7.758v-4.786h-2.4V770.5H65.816v-11.36H67.85v4.786h2.4v-4.766h2.034v11.36Zm-25.483-11.38,1.2,3.314.936-3.314h2.3v11.38H47.175v-6.484l-.6,2.333H45.363l-.6-2.333,0,6.484H42.733v-11.38Zm7.948,9.77-.237,1.609H50.4l2.1-11.379h2.3c.693,3.758,2.1,11.377,2.1,11.377l-2.065,0-.236-1.609Zm8.665-10.069a3.2,3.2,0,0,1,.479.036A3.279,3.279,0,0,1,64,760.169a2.955,2.955,0,0,1,.556,1.421c.018.171.021.343.021.517,0,.382,0,.125,0,.652H62.523c0-.615,0-.4-.014-.841a1.143,1.143,0,0,0-.246-.679,1.205,1.205,0,0,0-1.337-.349,1.187,1.187,0,0,0-.709.854,3.765,3.765,0,0,0-.053.8q-.005,2.366,0,4.734a2.147,2.147,0,0,0,.146.912,1.079,1.079,0,0,0,.627.561,1.265,1.265,0,0,0,.368.064h.047a1.2,1.2,0,0,0,.743-.243,1.074,1.074,0,0,0,.334-.463,2.269,2.269,0,0,0,.091-.771v-.025c0-.242.005.044,0-.338h2.058c0,.033,0,.3,0,.659a3.293,3.293,0,0,1-.533,1.8,3.1,3.1,0,0,1-1.393,1.135,3.394,3.394,0,0,1-1.275.251h-.012a3.412,3.412,0,0,1-1.6-.393,3.04,3.04,0,0,1-1.4-1.526,4.019,4.019,0,0,1-.235-1.366c-.023-.686-.014-1.376-.01-2.065.006-.763.008-1.518.01-2.282,0-.406,0-.815-.01-1.22a2.94,2.94,0,0,1,.351-1.451,3.215,3.215,0,0,1,1.631-1.427,3.418,3.418,0,0,1,1.266-.245Zm3.215,14.774H60.161v3.162h3.968v1.75H60.141v3.143h4.451v1.671H58.126V771.963h6.466Zm-15.4.02H46.983v8.017H49.2v1.691H42.728V781.69h2.221v-8.056H42.728v-1.671h6.466Zm5.477,9.708L52.459,776.3v7.038H50.424V771.963h2.311l2.121,6.718v-6.718h2.035v11.379Z" transform="translate(-42.728 -746.016)" fill="#fff"></path></svg> 